<svg xmlns="http://www.w3.org/2000/svg" xmlns:xlink="http://www.w3.org/1999/xlink" width="64" height="59" viewBox="0 0 64 59"><defs><path id="xkdia" d="M1137 661a20 20 0 1 1 40 0 20 20 0 0 1-40 0z"/><path id="xkdib" d="M1174.25 663.24v.91c1.9 1 3.5 2.47 4.66 4.26a12.2 12.2 0 0 1-4.66.25v.82a13.25 13.25 0 0 0 5.1-.34 12.23 12.23 0 0 1-20.87 12.67 12.93 12.93 0 0 0 1.8-8.81h-.83a12.16 12.16 0 0 1-1.45 8.03 12.12 12.12 0 0 1-1.45-8.03h-.83a12.96 12.96 0 0 0 1.79 8.81 12.22 12.22 0 0 1-20.7-12.95 13.13 13.13 0 0 0 4.79.31v-.82a12.29 12.29 0 0 1-4.33-.22 12.3 12.3 0 0 1 4.33-3.9v-.92a13.12 13.12 0 0 0-5.16 4.6 12.17 12.17 0 0 1-4.99-2.98A12.23 12.23 0 0 1 1145 645.1c.06.7.18 1.39.34 2.05h.84a12.1 12.1 0 0 1-.31-1.63c.83.46 1.6 1 2.31 1.63h1.18a13.1 13.1 0 0 0-3.57-2.58l-.01-.46a12.23 12.23 0 1 1 24.41.79 13.1 13.1 0 0 0-3.22 2.25h1.23c.58-.48 1.22-.9 1.88-1.28-.06.44-.15.86-.26 1.28h.84c.14-.55.24-1.13.3-1.71a12.25 12.25 0 0 1 17.22 11.06 12.23 12.23 0 0 1-8.45 11.69 13.13 13.13 0 0 0-5.48-4.94zm1.71-19.7c-1.8.02-3.43.36-4.93.97l.01-.57a13.05 13.05 0 0 0-26.08.17 14.57 14.57 0 0 0-4.92-.9 13.06 13.06 0 0 0-13.04 13.12 12.99 12.99 0 0 0 9 12.3 12.93 12.93 0 0 0 2.22 15.62 13.08 13.08 0 0 0 19.77-1.7 12.96 12.96 0 0 0 10.61 5.46 13.06 13.06 0 0 0 13.05-13.12c-.01-2.16-.56-4.2-1.51-5.99a13.04 13.04 0 0 0 8.86-12.42 13.05 13.05 0 0 0-13.04-12.94z"/><path id="xkdic" d="M1143.23 672.77a2.17 2.17 0 0 1-1.56-2.07v-20.88c0-1.19.97-2.16 2.16-2.16h28.34c1.2 0 2.16.97 2.16 2.16v20.88c0 1.2-.97 2.16-2.16 2.16h-16.92l-10.84 5.23 4.31-5.23h-4.89l-.35-.03h-.03zm12.17.75h16.77a2.83 2.83 0 0 0 2.83-2.82v-20.88a2.83 2.83 0 0 0-2.83-2.82h-28.34a2.83 2.83 0 0 0-2.83 2.82v20.88c0 1.16.73 2.21 1.8 2.63v.16h.6l.43.03h3.48l-5.34 6.48z"/><path id="xkdid" d="M1171 670.4V662h2.83v8.4z"/></defs><g><g transform="translate(-1126 -630)"><g><use fill="#4c9bd8" xlink:href="#xkdia"/></g><g><g><use xlink:href="#xkdib"/><use fill="#fff" fill-opacity="0" stroke="#000" stroke-miterlimit="50" xlink:href="#xkdib"/></g><g><use xlink:href="#xkdic"/><use fill="#fff" fill-opacity="0" stroke="#000" stroke-miterlimit="50" xlink:href="#xkdic"/></g><g><use fill="#4c9bd8" xlink:href="#xkdid"/></g></g></g></g></svg>