<svg xmlns="http://www.w3.org/2000/svg" xmlns:xlink="http://www.w3.org/1999/xlink" width="55" height="55" viewBox="0 0 55 55"><defs><path id="5fdza" d="M1014 662a20 20 0 1 1 40 0 20 20 0 0 1-40 0z"/><path id="5fdzb" d="M1009.35 650.51c-.14.25-.28.5-.39.77a24.13 24.13 0 0 0-1.85 7.38c-.21 2.93-.16 5.85.5 8.75a27.51 27.51 0 0 0 18.3 20.26c.13.04.27 0 .5 0l-1-1.35c-2.68-3.58-5.29-7.21-7.6-11.05a58.82 58.82 0 0 1-6.55-15.02 43.66 43.66 0 0 1-1.33-6.78c-.11-1.05-.25-2.1-.38-3.14-.07.06-.16.1-.2.18zm44.44-2.4c-4.08 1.95-8.17 3.9-12.14 6.06a66.41 66.41 0 0 0-5.96 3.55c-1.3.9-2.56 1.89-3.57 3.14-1.38 1.72-1.37 3.37.11 5.07.16.19.32.37.5.52.72.58 1.4 1.18 2.16 1.7a56.67 56.67 0 0 0 8.1 4.41c4.1 1.91 8.23 3.77 12.35 5.63.25.11.48.36.8.22 7.34-8.94 7.82-22.53 1.24-32.03l-3.6 1.72zm-.07 31.62l-7.18-2.64a208.98 208.98 0 0 1-16.6-6.7 36.63 36.63 0 0 1-6.35-3.71 8.9 8.9 0 0 1-2.46-2.62 3.96 3.96 0 0 1-.5-3.17 7.3 7.3 0 0 1 .77-1.85c.97-1.6 2.3-2.86 3.67-4.06a73.53 73.53 0 0 1 6.8-5.13c5.21-3.56 10.54-6.94 15.86-10.33.52-.33 1.09-.6 1.55-1.1-.59-.52-1.23-.85-1.86-1.18a28.1 28.1 0 0 0-13.04-3.24c-1.12 0-2.2.15-3.3.26-.77.08-1.53.2-2.29.36a1.3 1.3 0 0 0-.61.34c-.28.27-.53.57-.75.88-.96 1.38-1.95 2.75-2.86 4.16a37.28 37.28 0 0 0-4.42 9.53 27.54 27.54 0 0 0-1.28 7.52c0 .43-.07.86-.1 1.29-.01.24-.02.48 0 .72.02.62.1 1.24.1 1.87.02 2.03.4 4.01.8 6 .54 2.68 1.34 5.3 2.29 7.88 1.37 3.7 2.82 7.36 4.24 11.04.27.72.58 1.42.84 2.07 3.98 1.47 10.82 1.46 15.86-.16 4.65-1.5 9.7-4.85 11.7-7.64-.36-.16-.61-.3-.88-.4z"/></defs><g><g transform="translate(-1007 -634)"><use fill="#4c9bd8" xlink:href="#5fdza"/></g><g transform="translate(-1007 -634)"><use xlink:href="#5fdzb"/></g></g></svg>